<?xml version="1.0" encoding="UTF-8"?>
<svg xmlns="http://www.w3.org/2000/svg" xmlns:xlink="http://www.w3.org/1999/xlink" width="212.25pt" height="218.25pt" viewBox="0 0 212.25 218.25">
<defs>
<clipPath id="clip-0">
<path clip-rule="nonzero" d="M 168 0 L 212.25 0 L 212.25 41 L 168 41 Z M 168 0 "/>
</clipPath>
<clipPath id="clip-1">
<rect x="0" y="0" width="45" height="41"/>
</clipPath>
<g id="source-5" clip-path="url(#clip-1)">
<path fill-rule="nonzero" fill="rgb(0%, 0%, 0%)" fill-opacity="1" d="M 8.5 27.058594 L 12.464844 23.210938 C 18.292969 18.054688 20.53125 16.039062 20.53125 12.304688 C 20.53125 8.042969 17.167969 5.054688 12.613281 5.054688 C 8.390625 5.054688 5.625 8.492188 5.625 11.816406 C 5.625 13.910156 7.496094 13.910156 7.605469 13.910156 C 8.242188 13.910156 9.546875 13.460938 9.546875 11.929688 C 9.546875 10.957031 8.875 9.984375 7.570312 9.984375 C 7.269531 9.984375 7.195312 9.984375 7.082031 10.023438 C 7.941406 7.59375 9.960938 6.210938 12.125 6.210938 C 15.527344 6.210938 17.132812 9.238281 17.132812 12.304688 C 17.132812 15.289062 15.261719 18.242188 13.210938 20.558594 L 6.035156 28.554688 C 5.625 28.964844 5.625 29.039062 5.625 29.933594 L 19.484375 29.933594 L 20.53125 23.433594 L 19.597656 23.433594 C 19.410156 24.554688 19.152344 26.199219 18.777344 26.757812 C 18.511719 27.058594 16.046875 27.058594 15.226562 27.058594 Z M 8.5 27.058594 "/>
</g>
<clipPath id="clip-2">
<rect x="0" y="0" width="41" height="41"/>
</clipPath>
<g id="source-8" clip-path="url(#clip-2)">
<path fill-rule="nonzero" fill="rgb(0%, 0%, 0%)" fill-opacity="1" d="M 13.933594 6.023438 C 13.933594 5.128906 13.933594 5.054688 13.074219 5.054688 C 10.757812 7.445312 7.472656 7.445312 6.273438 7.445312 L 6.273438 8.601562 C 7.023438 8.601562 9.226562 8.601562 11.167969 7.632812 L 11.167969 26.984375 C 11.167969 28.328125 11.054688 28.777344 7.695312 28.777344 L 6.5 28.777344 L 6.5 29.933594 C 7.804688 29.824219 11.054688 29.824219 12.554688 29.824219 C 14.046875 29.824219 17.296875 29.824219 18.601562 29.933594 L 18.601562 28.777344 L 17.410156 28.777344 C 14.046875 28.777344 13.933594 28.367188 13.933594 26.984375 Z M 13.933594 6.023438 "/>
</g>
<clipPath id="clip-3">
<rect x="0" y="0" width="45" height="41"/>
</clipPath>
<g id="source-11" clip-path="url(#clip-3)">
<path fill-rule="nonzero" fill="rgb(0%, 0%, 0%)" fill-opacity="1" d="M 15.050781 16.949219 C 18.113281 15.941406 20.28125 13.328125 20.28125 10.375 C 20.28125 7.3125 16.992188 5.21875 13.40625 5.21875 C 9.632812 5.21875 6.792969 7.460938 6.792969 10.300781 C 6.792969 11.535156 7.617188 12.242188 8.699219 12.242188 C 9.855469 12.242188 10.605469 11.421875 10.605469 10.335938 C 10.605469 8.46875 8.851562 8.46875 8.289062 8.46875 C 9.445312 6.640625 11.914062 6.152344 13.257812 6.152344 C 14.789062 6.152344 16.84375 6.976562 16.84375 10.335938 C 16.84375 10.789062 16.769531 12.953125 15.796875 14.597656 C 14.679688 16.390625 13.40625 16.503906 12.472656 16.539062 C 12.175781 16.578125 11.277344 16.652344 11.015625 16.652344 C 10.714844 16.691406 10.457031 16.726562 10.457031 17.101562 C 10.457031 17.511719 10.714844 17.511719 11.355469 17.511719 L 12.996094 17.511719 C 16.058594 17.511719 17.441406 20.050781 17.441406 23.710938 C 17.441406 28.792969 14.863281 29.878906 13.21875 29.878906 C 11.613281 29.878906 8.8125 29.242188 7.503906 27.039062 C 8.8125 27.226562 9.96875 26.402344 9.96875 24.984375 C 9.96875 23.636719 8.960938 22.890625 7.878906 22.890625 C 6.980469 22.890625 5.785156 23.414062 5.785156 25.054688 C 5.785156 28.457031 9.257812 30.921875 13.332031 30.921875 C 17.890625 30.921875 21.292969 27.523438 21.292969 23.710938 C 21.292969 20.648438 18.933594 17.734375 15.050781 16.949219 Z M 15.050781 16.949219 "/>
</g>
<clipPath id="clip-4">
<rect x="0" y="0" width="44" height="41"/>
</clipPath>
<g id="source-14" clip-path="url(#clip-4)">
<path fill-rule="nonzero" fill="rgb(0%, 0%, 0%)" fill-opacity="1" d="M 14.433594 23.9375 L 14.433594 27.1875 C 14.433594 28.53125 14.359375 28.945312 11.59375 28.945312 L 10.808594 28.945312 L 10.808594 30.101562 C 12.34375 29.992188 14.285156 29.992188 15.851562 29.992188 C 17.421875 29.992188 19.402344 29.992188 20.933594 30.101562 L 20.933594 28.945312 L 20.148438 28.945312 C 17.382812 28.945312 17.3125 28.53125 17.3125 27.1875 L 17.3125 23.9375 L 21.046875 23.9375 L 21.046875 22.777344 L 17.3125 22.777344 L 17.3125 5.78125 C 17.3125 5.035156 17.3125 4.808594 16.710938 4.808594 C 16.378906 4.808594 16.265625 4.808594 15.964844 5.257812 L 4.496094 22.777344 L 4.496094 23.9375 Z M 14.660156 22.777344 L 5.542969 22.777344 L 14.660156 8.84375 Z M 14.660156 22.777344 "/>
</g>
<clipPath id="clip-5">
<rect x="0" y="0" width="67" height="57"/>
</clipPath>
<g id="source-17" clip-path="url(#clip-5)">
<path fill-rule="nonzero" fill="rgb(0%, 0%, 0%)" fill-opacity="1" d="M 21.929688 23.785156 L 27.363281 23.785156 C 31.566406 23.785156 32.015625 24.683594 32.015625 26.308594 C 32.015625 26.703125 32.015625 27.375 31.621094 29.054688 C 31.511719 29.335938 31.453125 29.5625 31.453125 29.671875 C 31.453125 30.121094 31.792969 30.34375 32.128906 30.34375 C 32.6875 30.34375 32.6875 30.175781 32.96875 29.167969 L 36.050781 17.007812 C 36.21875 16.390625 36.21875 16.277344 36.21875 16.109375 C 36.21875 16 36.105469 15.492188 35.546875 15.492188 C 34.984375 15.492188 34.929688 15.773438 34.707031 16.671875 C 33.527344 21.042969 32.242188 22.050781 27.476562 22.050781 L 22.375 22.050781 L 25.964844 7.816406 C 26.464844 5.855469 26.523438 5.628906 28.988281 5.628906 L 36.386719 5.628906 C 43.277344 5.628906 44.570312 7.480469 44.570312 11.796875 C 44.570312 13.082031 44.570312 13.308594 44.402344 14.820312 C 44.289062 15.546875 44.289062 15.660156 44.289062 15.828125 C 44.289062 16.109375 44.457031 16.5 44.960938 16.5 C 45.574219 16.5 45.632812 16.167969 45.746094 15.101562 L 46.867188 5.40625 C 47.035156 3.890625 46.753906 3.890625 45.355469 3.890625 L 17.894531 3.890625 C 16.773438 3.890625 16.214844 3.890625 16.214844 5.015625 C 16.214844 5.628906 16.714844 5.628906 17.78125 5.628906 C 19.855469 5.628906 21.421875 5.628906 21.421875 6.640625 C 21.421875 6.863281 21.421875 6.976562 21.144531 7.984375 L 13.746094 37.628906 C 13.183594 39.8125 13.074219 40.265625 8.648438 40.265625 C 7.695312 40.265625 7.078125 40.265625 7.078125 41.328125 C 7.078125 42 7.75 42 7.917969 42 C 9.542969 42 13.691406 41.832031 15.316406 41.832031 C 17.167969 41.832031 21.816406 42 23.667969 42 C 24.167969 42 24.839844 42 24.839844 40.9375 C 24.839844 40.484375 24.507812 40.375 24.507812 40.320312 C 24.339844 40.265625 24.226562 40.265625 22.9375 40.265625 C 21.703125 40.265625 21.421875 40.265625 20.023438 40.152344 C 18.398438 39.984375 18.230469 39.757812 18.230469 39.03125 C 18.230469 38.917969 18.230469 38.582031 18.453125 37.742188 Z M 21.929688 23.785156 "/>
</g>
</defs>
<path fill-rule="evenodd" fill="rgb(90.588379%, 90.588379%, 90.588379%)" fill-opacity="1" stroke-width="3.125" stroke-linecap="round" stroke-linejoin="round" stroke="rgb(0%, 0%, 0%)" stroke-opacity="1" stroke-miterlimit="10" d="M 61.464844 76.519531 L 132.332031 76.519531 L 132.332031 147.382812 L 61.464844 147.382812 Z M 61.464844 76.519531 " transform="matrix(1, 0, 0, -1, 0, 218.25)"/>
<path fill="none" stroke-width="3.125" stroke-linecap="round" stroke-linejoin="round" stroke="rgb(0%, 0%, 0%)" stroke-opacity="1" stroke-miterlimit="10" d="M 61.464844 147.382812 L 26.035156 182.816406 " transform="matrix(1, 0, 0, -1, 0, 218.25)"/>
<path fill="none" stroke-width="3.125" stroke-linecap="round" stroke-linejoin="round" stroke="rgb(0%, 0%, 0%)" stroke-opacity="1" stroke-miterlimit="10" d="M 132.332031 147.382812 L 167.765625 182.816406 " transform="matrix(1, 0, 0, -1, 0, 218.25)"/>
<path fill="none" stroke-width="3.125" stroke-linecap="round" stroke-linejoin="round" stroke="rgb(0%, 0%, 0%)" stroke-opacity="1" stroke-miterlimit="10" d="M 132.332031 76.519531 L 167.765625 41.085938 " transform="matrix(1, 0, 0, -1, 0, 218.25)"/>
<path fill="none" stroke-width="3.125" stroke-linecap="round" stroke-linejoin="round" stroke="rgb(0%, 0%, 0%)" stroke-opacity="1" stroke-miterlimit="10" d="M 61.464844 76.519531 L 26.035156 41.085938 " transform="matrix(1, 0, 0, -1, 0, 218.25)"/>
<path fill-rule="evenodd" fill="rgb(0.784302%, 0.784302%, 0.784302%)" fill-opacity="1" stroke-width="3.125" stroke-linecap="round" stroke-linejoin="round" stroke="rgb(0%, 0%, 0%)" stroke-opacity="1" stroke-miterlimit="10" d="M 31.222656 165.101562 L 43.753906 177.628906 L 50.011719 158.835938 Z M 31.222656 165.101562 " transform="matrix(1, 0, 0, -1, 0, 218.25)"/>
<path fill-rule="evenodd" fill="rgb(0.784302%, 0.784302%, 0.784302%)" fill-opacity="1" stroke-width="3.125" stroke-linecap="round" stroke-linejoin="round" stroke="rgb(0%, 0%, 0%)" stroke-opacity="1" stroke-miterlimit="10" d="M 150.050781 152.574219 L 137.523438 165.101562 L 156.3125 171.363281 Z M 150.050781 152.574219 " transform="matrix(1, 0, 0, -1, 0, 218.25)"/>
<path fill-rule="evenodd" fill="rgb(0.784302%, 0.784302%, 0.784302%)" fill-opacity="1" stroke-width="3.125" stroke-linecap="round" stroke-linejoin="round" stroke="rgb(0%, 0%, 0%)" stroke-opacity="1" stroke-miterlimit="10" d="M 162.578125 58.800781 L 150.050781 46.273438 L 143.785156 65.066406 Z M 162.578125 58.800781 " transform="matrix(1, 0, 0, -1, 0, 218.25)"/>
<path fill-rule="evenodd" fill="rgb(0.784302%, 0.784302%, 0.784302%)" fill-opacity="1" stroke-width="3.125" stroke-linecap="round" stroke-linejoin="round" stroke="rgb(0%, 0%, 0%)" stroke-opacity="1" stroke-miterlimit="10" d="M 43.75 71.328125 L 56.277344 58.800781 L 37.484375 52.539062 Z M 43.75 71.328125 " transform="matrix(1, 0, 0, -1, 0, 218.25)"/>
<path fill-rule="evenodd" fill="rgb(90.588379%, 90.588379%, 90.588379%)" fill-opacity="1" stroke-width="3.125" stroke-linecap="round" stroke-linejoin="round" stroke="rgb(0%, 0%, 0%)" stroke-opacity="1" stroke-miterlimit="10" d="M 61.199219 77.167969 L 132.0625 77.167969 L 132.0625 148.035156 L 61.199219 148.035156 Z M 61.199219 77.167969 " transform="matrix(1, 0, 0, -1, 0, 218.25)"/>
<path fill="none" stroke-width="3.125" stroke-linecap="round" stroke-linejoin="round" stroke="rgb(0%, 0%, 0%)" stroke-opacity="1" stroke-miterlimit="10" d="M 61.382812 147.851562 L 25.949219 183.285156 " transform="matrix(1, 0, 0, -1, 0, 218.25)"/>
<path fill="none" stroke-width="3.125" stroke-linecap="round" stroke-linejoin="round" stroke="rgb(0%, 0%, 0%)" stroke-opacity="1" stroke-miterlimit="10" d="M 131.699219 147.851562 L 167.132812 183.285156 " transform="matrix(1, 0, 0, -1, 0, 218.25)"/>
<path fill="none" stroke-width="3.125" stroke-linecap="round" stroke-linejoin="round" stroke="rgb(0%, 0%, 0%)" stroke-opacity="1" stroke-miterlimit="10" d="M 131.699219 76.785156 L 167.132812 41.351562 " transform="matrix(1, 0, 0, -1, 0, 218.25)"/>
<path fill="none" stroke-width="3.125" stroke-linecap="round" stroke-linejoin="round" stroke="rgb(0%, 0%, 0%)" stroke-opacity="1" stroke-miterlimit="10" d="M 61.382812 76.785156 L 25.949219 41.351562 " transform="matrix(1, 0, 0, -1, 0, 218.25)"/>
<path fill-rule="evenodd" fill="rgb(0.784302%, 0.784302%, 0.784302%)" fill-opacity="1" stroke-width="3.125" stroke-linecap="round" stroke-linejoin="round" stroke="rgb(0%, 0%, 0%)" stroke-opacity="1" stroke-miterlimit="10" d="M 31.09375 165.613281 L 43.625 178.140625 L 49.886719 159.347656 Z M 31.09375 165.613281 " transform="matrix(1, 0, 0, -1, 0, 218.25)"/>
<path fill-rule="evenodd" fill="rgb(0.784302%, 0.784302%, 0.784302%)" fill-opacity="1" stroke-width="3.125" stroke-linecap="round" stroke-linejoin="round" stroke="rgb(0%, 0%, 0%)" stroke-opacity="1" stroke-miterlimit="10" d="M 149.371094 153.085938 L 136.847656 165.609375 L 155.636719 171.875 Z M 149.371094 153.085938 " transform="matrix(1, 0, 0, -1, 0, 218.25)"/>
<path fill-rule="evenodd" fill="rgb(0.784302%, 0.784302%, 0.784302%)" fill-opacity="1" stroke-width="3.125" stroke-linecap="round" stroke-linejoin="round" stroke="rgb(0%, 0%, 0%)" stroke-opacity="1" stroke-miterlimit="10" d="M 161.902344 59.109375 L 149.371094 46.582031 L 143.109375 65.375 Z M 161.902344 59.109375 " transform="matrix(1, 0, 0, -1, 0, 218.25)"/>
<path fill-rule="evenodd" fill="rgb(0.784302%, 0.784302%, 0.784302%)" fill-opacity="1" stroke-width="3.125" stroke-linecap="round" stroke-linejoin="round" stroke="rgb(0%, 0%, 0%)" stroke-opacity="1" stroke-miterlimit="10" d="M 43.621094 71.640625 L 56.152344 59.109375 L 37.359375 52.847656 Z M 43.621094 71.640625 " transform="matrix(1, 0, 0, -1, 0, 218.25)"/>
<g clip-path="url(#clip-0)">
<use xlink:href="#source-5" transform="matrix(1, 0, 0, 1, 168, 0)"/>
</g>
<use xlink:href="#source-8" transform="matrix(1, 0, 0, 1, 3, 0)"/>
<use xlink:href="#source-11" transform="matrix(1, 0, 0, 1, 167, 177)"/>
<use xlink:href="#source-14" transform="matrix(1, 0, 0, 1, 0, 177)"/>
<use xlink:href="#source-17" transform="matrix(1, 0, 0, 1, 69, 84)"/>
</svg>
