<?xml version="1.0" encoding="UTF-8" standalone="no"?>
<!DOCTYPE svg PUBLIC "-//W3C//DTD SVG 1.1//EN" "http://www.w3.org/Graphics/SVG/1.1/DTD/svg11.dtd">
<svg width="100%" height="100%" viewBox="0 0 298 279" version="1.1" xmlns="http://www.w3.org/2000/svg" xmlns:xlink="http://www.w3.org/1999/xlink" xml:space="preserve" xmlns:serif="http://www.serif.com/" style="fill-rule:evenodd;clip-rule:evenodd;stroke-linecap:round;stroke-linejoin:round;stroke-miterlimit:1.5;">
    <g transform="matrix(1,0,0,1,-385.597113,-2461.581365)">
        <g transform="matrix(0.018097,0,0,-0.018097,944.248508,714.597323)">
            <g transform="matrix(55.2589,0,0,-55.2589,-52178.133552,-80743.581742)">
                <path d="M472.441,377.953L425.197,330.709" style="fill:none;stroke:black;stroke-width:4.17px;"/>
            </g>
        </g>
        <g transform="matrix(0.018097,0,0,-0.018097,944.248508,714.597323)">
            <g transform="matrix(55.2589,0,0,-55.2589,-52178.133552,-80743.581742)">
                <path d="M566.929,377.953L614.173,330.709" style="fill:none;stroke:black;stroke-width:4.17px;"/>
            </g>
        </g>
        <g transform="matrix(0.018097,0,0,-0.018097,944.248508,714.597323)">
            <g transform="matrix(55.2589,0,0,-55.2589,-52178.133552,-80743.581742)">
                <path d="M566.929,472.441L614.173,519.685" style="fill:none;stroke:black;stroke-width:4.17px;"/>
            </g>
        </g>
        <g transform="matrix(0.018097,0,0,-0.018097,944.248508,714.597323)">
            <g transform="matrix(55.2589,0,0,-55.2589,-52178.133552,-80743.581742)">
                <path d="M472.441,472.441L425.197,519.685" style="fill:none;stroke:black;stroke-width:4.17px;"/>
            </g>
        </g>
        <g transform="matrix(0.018097,0,0,-0.018097,944.248508,714.597323)">
            <g transform="matrix(39.065702,-39.082182,-39.082182,-39.065702,-20906.117043,-54174.544408)">
                <path d="M496.063,685.039L496.063,661.417L519.685,673.228L496.063,685.039Z" style="fill:rgb(2,2,2);stroke:black;stroke-width:4.17px;"/>
            </g>
        </g>
        <g transform="matrix(0.018097,0,0,-0.018097,944.248508,714.597323)">
            <g transform="matrix(39.073943,39.073943,39.073943,-39.073943,-65695.251085,-93862.461183)">
                <path d="M496.063,685.039L496.063,661.417L519.685,673.228L496.063,685.039Z" style="fill:rgb(2,2,2);stroke:black;stroke-width:4.17px;"/>
            </g>
        </g>
        <g transform="matrix(0.018097,0,0,-0.018097,944.248508,714.597323)">
            <g transform="matrix(-39.073943,39.073943,39.073943,39.073943,-26005.970723,-154305.802859)">
                <path d="M496.063,685.039L496.063,661.417L519.685,673.228L496.063,685.039Z" style="fill:rgb(2,2,2);stroke:black;stroke-width:4.17px;"/>
            </g>
        </g>
        <g transform="matrix(0.018097,0,0,-0.018097,944.248508,714.597323)">
            <g transform="matrix(-39.073943,-39.073943,-39.073943,39.073943,18773.430887,-114616.522497)">
                <path d="M496.063,685.039L496.063,661.417L519.685,673.228L496.063,685.039Z" style="fill:rgb(2,2,2);stroke:black;stroke-width:4.17px;"/>
            </g>
        </g>
        <g transform="matrix(0.018097,0,0,-0.018097,944.248508,714.597323)">
            <g transform="matrix(82.792489,-27.533589,27.533589,-82.792489,-72997.198104,-59896.235076)">
                <path d="M472.441,377.953L425.197,330.709" style="fill:none;stroke:black;stroke-width:2.09px;"/>
            </g>
        </g>
        <g transform="matrix(0.018097,0,0,-0.018097,944.248508,714.597323)">
            <g transform="matrix(82.792489,27.533589,-27.533589,-82.792489,-60029.668455,-88513.823696)">
                <path d="M566.929,377.953L614.173,330.709" style="fill:none;stroke:black;stroke-width:4.17px;"/>
            </g>
        </g>
        <g transform="matrix(0.018097,0,0,-0.018097,944.248508,714.597323)">
            <g transform="matrix(82.792489,-27.533589,27.533589,-82.792489,-83444.059145,-49504.632935)">
                <path d="M566.929,472.441L614.173,519.685" style="fill:none;stroke:black;stroke-width:2.09px;"/>
            </g>
        </g>
        <g transform="matrix(0.018097,0,0,-0.018097,944.248508,714.597323)">
            <g transform="matrix(82.966633,27.707733,-27.707733,-82.966633,-49566.352842,-78105.766983)">
                <path d="M472.441,472.441L425.197,519.685" style="fill:none;stroke:black;stroke-width:4.17px;"/>
            </g>
        </g>
        <g transform="matrix(0.018097,0,0,-0.018097,944.248508,714.597323)">
            <g transform="matrix(39.065702,-39.082182,-39.082182,-39.065702,-20915.472929,-54136.906408)">
                <path d="M496.063,685.039L496.063,661.417L519.685,673.228L496.063,685.039Z" style="fill:rgb(2,2,2);stroke:black;stroke-width:4.17px;"/>
            </g>
        </g>
        <g transform="matrix(0.018097,0,0,-0.018097,944.248508,714.597323)">
            <g transform="matrix(39.073943,39.073943,39.073943,-39.073943,-65745.072125,-93824.823208)">
                <path d="M496.063,685.039L496.063,661.417L519.685,673.228L496.063,685.039Z" style="fill:rgb(2,2,2);stroke:black;stroke-width:4.17px;"/>
            </g>
        </g>
        <g transform="matrix(0.018097,0,0,-0.018097,944.248508,714.597323)">
            <g transform="matrix(-39.073943,39.073943,39.073943,39.073943,-26055.791763,-154282.958605)">
                <path d="M496.063,685.039L496.063,661.417L519.685,673.228L496.063,685.039Z" style="fill:rgb(2,2,2);stroke:black;stroke-width:4.17px;"/>
            </g>
        </g>
        <g transform="matrix(0.018097,0,0,-0.018097,944.248508,714.597323)">
            <g transform="matrix(-39.073943,-39.073943,-39.073943,39.073943,18764.075026,-114593.678242)">
                <path d="M496.063,685.039L496.063,661.417L519.685,673.228L496.063,685.039Z" style="fill:rgb(2,2,2);stroke:black;stroke-width:4.17px;"/>
            </g>
        </g>
        <g transform="matrix(0.018097,0,0,-0.018097,944.248508,714.597323)">
            <g transform="matrix(55.2589,0,0,-55.2589,-29258.74347,-98033.011112)">
                <g transform="matrix(1,0,0,1,-29.166667,-27.083333)">
                    <g transform="matrix(4.166667,0,0,4.166667,0,0)">
                        <path d="M2.622,8.659L3.89,7.427C5.755,5.778 6.472,5.132 6.472,3.937C6.472,2.574 5.396,1.617 3.938,1.617C2.587,1.617 1.702,2.717 1.702,3.781C1.702,4.451 2.3,4.451 2.336,4.451C2.539,4.451 2.957,4.307 2.957,3.817C2.957,3.506 2.742,3.195 2.324,3.195C2.228,3.195 2.204,3.195 2.168,3.207C2.443,2.43 3.089,1.988 3.782,1.988C4.87,1.988 5.384,2.956 5.384,3.937C5.384,4.893 4.786,5.837 4.129,6.579L1.833,9.137C1.702,9.269 1.702,9.292 1.702,9.579L6.137,9.579L6.472,7.499L6.173,7.499C6.113,7.858 6.03,8.384 5.91,8.563C5.826,8.659 5.037,8.659 4.774,8.659L2.622,8.659Z" style="fill-rule:nonzero;"/>
                    </g>
                </g>
            </g>
        </g>
        <g transform="matrix(0.018097,0,0,-0.018097,944.248508,714.597323)">
            <g transform="matrix(55.2589,0,0,-55.2589,-29143.620763,-110433.630331)">
                <g transform="matrix(1,0,0,1,-27.083333,-27.083333)">
                    <g transform="matrix(4.166667,0,0,4.166667,0,0)">
                        <path d="M4.419,1.928C4.419,1.641 4.419,1.617 4.144,1.617C3.403,2.382 2.351,2.382 1.968,2.382L1.968,2.753C2.207,2.753 2.913,2.753 3.534,2.442L3.534,8.635C3.534,9.065 3.498,9.209 2.422,9.209L2.04,9.209L2.04,9.579C2.458,9.544 3.498,9.544 3.977,9.544C4.455,9.544 5.495,9.544 5.913,9.579L5.913,9.209L5.531,9.209C4.455,9.209 4.419,9.077 4.419,8.635L4.419,1.928Z" style="fill-rule:nonzero;"/>
                    </g>
                </g>
            </g>
        </g>
        <g transform="matrix(0.018097,0,0,-0.018097,944.248508,714.597323)">
            <g transform="matrix(55.2589,0,0,-55.2589,-16015.073474,-98033.011112)">
                <g transform="matrix(1,0,0,1,-29.166667,-27.083333)">
                    <g transform="matrix(4.166667,0,0,4.166667,0,0)">
                        <path d="M4.571,5.371C5.551,5.048 6.245,4.212 6.245,3.267C6.245,2.287 5.193,1.617 4.045,1.617C2.838,1.617 1.929,2.335 1.929,3.243C1.929,3.638 2.192,3.865 2.539,3.865C2.909,3.865 3.149,3.602 3.149,3.255C3.149,2.657 2.587,2.657 2.407,2.657C2.778,2.072 3.567,1.916 3.997,1.916C4.487,1.916 5.145,2.179 5.145,3.255C5.145,3.399 5.121,4.092 4.81,4.618C4.452,5.192 4.045,5.228 3.746,5.24C3.651,5.252 3.364,5.276 3.28,5.276C3.184,5.288 3.101,5.299 3.101,5.419C3.101,5.551 3.184,5.551 3.388,5.551L3.914,5.551C4.894,5.551 5.336,6.363 5.336,7.535C5.336,9.161 4.511,9.508 3.985,9.508C3.471,9.508 2.575,9.304 2.156,8.599C2.575,8.659 2.945,8.396 2.945,7.942C2.945,7.511 2.622,7.272 2.276,7.272C1.989,7.272 1.606,7.439 1.606,7.965C1.606,9.053 2.718,9.842 4.021,9.842C5.48,9.842 6.568,8.755 6.568,7.535C6.568,6.555 5.814,5.622 4.571,5.371Z" style="fill-rule:nonzero;"/>
                    </g>
                </g>
            </g>
        </g>
        <g transform="matrix(0.018097,0,0,-0.018097,944.248508,714.597323)">
            <g transform="matrix(55.2589,0,0,-55.2589,-16674.616842,-110433.630331)">
                <g transform="matrix(1,0,0,1,-29.166667,-27.083333)">
                    <g transform="matrix(4.166667,0,0,4.166667,0,0)">
                        <path d="M4.619,7.607L4.619,8.647C4.619,9.077 4.595,9.209 3.71,9.209L3.459,9.209L3.459,9.579C3.95,9.544 4.571,9.544 5.073,9.544C5.575,9.544 6.209,9.544 6.699,9.579L6.699,9.209L6.448,9.209C5.563,9.209 5.54,9.077 5.54,8.647L5.54,7.607L6.735,7.607L6.735,7.236L5.54,7.236L5.54,1.797C5.54,1.558 5.54,1.486 5.348,1.486C5.241,1.486 5.205,1.486 5.109,1.629L1.439,7.236L1.439,7.607L4.619,7.607ZM4.691,7.236L1.774,7.236L4.691,2.777L4.691,7.236Z" style="fill-rule:nonzero;"/>
                    </g>
                </g>
            </g>
        </g>
        <g transform="matrix(0.018097,0,0,-0.018097,944.248508,714.597323)">
            <g transform="matrix(94.046116,0,0,-90.143087,-73445.882738,129084.80533)">
                <ellipse cx="531.506" cy="2588.689" rx="11.801" ry="12.801" style="stroke:black;stroke-width:2.5px;"/>
            </g>
        </g>
    </g>
</svg>
