<?xml version="1.0" encoding="UTF-8" standalone="no"?>
<!DOCTYPE svg PUBLIC "-//W3C//DTD SVG 1.1//EN" "http://www.w3.org/Graphics/SVG/1.1/DTD/svg11.dtd">
<svg width="100%" height="100%" viewBox="0 0 240 69" version="1.1" xmlns="http://www.w3.org/2000/svg" xmlns:xlink="http://www.w3.org/1999/xlink" xml:space="preserve" xmlns:serif="http://www.serif.com/" style="fill-rule:evenodd;clip-rule:evenodd;stroke-linecap:round;stroke-linejoin:round;stroke-miterlimit:1.5;">
    <g transform="matrix(1,0,0,1,-2114.895013,-890.715223)">
        <g transform="matrix(0.018097,0,0,-0.018097,944.248508,714.597323)">
            <g transform="matrix(55.2589,0,0,-55.2589,66300.355711,-11228.676581)">
                <g transform="matrix(1,0,0,1,-29.166667,-27.083333)">
                    <g transform="matrix(4.166667,0,0,4.166667,0,0)">
                        <path d="M2.622,8.659L3.89,7.427C5.755,5.778 6.472,5.132 6.472,3.937C6.472,2.574 5.396,1.617 3.938,1.617C2.587,1.617 1.702,2.717 1.702,3.781C1.702,4.451 2.3,4.451 2.336,4.451C2.539,4.451 2.957,4.307 2.957,3.817C2.957,3.506 2.742,3.195 2.324,3.195C2.228,3.195 2.204,3.195 2.168,3.207C2.443,2.43 3.089,1.988 3.782,1.988C4.87,1.988 5.384,2.956 5.384,3.937C5.384,4.893 4.786,5.837 4.129,6.579L1.833,9.137C1.702,9.269 1.702,9.292 1.702,9.579L6.137,9.579L6.472,7.499L6.173,7.499C6.113,7.858 6.03,8.384 5.91,8.563C5.826,8.659 5.037,8.659 4.774,8.659L2.622,8.659Z" style="fill-rule:nonzero;"/>
                    </g>
                </g>
            </g>
        </g>
        <g transform="matrix(0.018097,0,0,-0.018097,944.248508,714.597323)">
            <g transform="matrix(55.2589,0,0,-55.2589,76408.524459,-11228.676581)">
                <g transform="matrix(1,0,0,1,-27.083333,-27.083333)">
                    <g transform="matrix(4.166667,0,0,4.166667,0,0)">
                        <path d="M4.419,1.928C4.419,1.641 4.419,1.617 4.144,1.617C3.403,2.382 2.351,2.382 1.968,2.382L1.968,2.753C2.207,2.753 2.913,2.753 3.534,2.442L3.534,8.635C3.534,9.065 3.498,9.209 2.422,9.209L2.04,9.209L2.04,9.579C2.458,9.544 3.498,9.544 3.977,9.544C4.455,9.544 5.495,9.544 5.913,9.579L5.913,9.209L5.531,9.209C4.455,9.209 4.419,9.077 4.419,8.635L4.419,1.928Z" style="fill-rule:nonzero;"/>
                    </g>
                </g>
            </g>
        </g>
        <g transform="matrix(-0.999984,-0.005624,0.005624,-0.999984,2724.486288,1620.889019)">
            <path d="M496.063,685.039L496.063,661.417L519.685,673.228L496.063,685.039Z" style="fill:rgb(2,2,2);stroke:black;stroke-width:4.17px;"/>
        </g>
        <g transform="matrix(2,0.707107,-2,0.707107,1747.299213,276.749498)">
            <path d="M566.929,377.953L614.173,330.709" style="fill:none;stroke:black;stroke-width:4.17px;"/>
        </g>
    </g>
</svg>
